<svg xmlns="http://www.w3.org/2000/svg" xmlns:xlink="http://www.w3.org/1999/xlink" width="500" zoomAndPan="magnify" viewBox="0 0 375 374.999991" height="500" preserveAspectRatio="xMidYMid meet" version="1.0"><defs><g/><clipPath id="e3429545d2"><path d="M 92.304688 25.398438 L 282.804688 25.398438 L 282.804688 311.148438 L 92.304688 311.148438 Z M 92.304688 25.398438 " clip-rule="nonzero"/></clipPath></defs><path fill="#284faf" d="M 150.488281 248.070312 C 150.488281 244.859375 153.148438 241.261719 156.226562 237.101562 C 157.910156 234.816406 159.734375 232.355469 161.324219 229.648438 C 162.914062 232.355469 164.738281 234.816406 166.421875 237.101562 C 169.5 241.261719 172.160156 244.859375 172.160156 248.070312 C 172.160156 250.964844 171.035156 253.683594 168.988281 255.730469 C 166.941406 257.777344 164.21875 258.90625 161.324219 258.90625 C 158.429688 258.90625 155.710938 257.777344 153.664062 255.730469 C 151.617188 253.683594 150.488281 250.964844 150.488281 248.070312 " fill-opacity="1" fill-rule="nonzero"/><g clip-path="url(#e3429545d2)"><path fill="#0b7f58" d="M 100.457031 215.824219 C 100.457031 203.460938 104.265625 190.84375 112.449219 176.113281 C 119.394531 163.601562 128.621094 151.125 138.386719 137.917969 C 154.195312 116.535156 170.542969 94.421875 180.132812 68.695312 L 187.496094 48.921875 L 194.863281 68.695312 C 204.449219 94.421875 220.796875 116.535156 236.605469 137.917969 C 246.371094 151.125 255.597656 163.601562 262.546875 176.113281 C 270.726562 190.84375 274.539062 203.460938 274.539062 215.824219 C 274.539062 239.074219 265.484375 260.929688 249.042969 277.371094 C 232.601562 293.8125 210.746094 302.863281 187.496094 302.863281 C 164.246094 302.863281 142.390625 293.8125 125.949219 277.371094 C 109.511719 260.929688 100.457031 239.074219 100.457031 215.824219 Z M 92.304688 215.824219 C 92.304688 228.667969 94.824219 241.136719 99.792969 252.882812 C 104.585938 264.21875 111.449219 274.398438 120.1875 283.136719 C 128.921875 291.871094 139.101562 298.734375 150.4375 303.527344 C 162.183594 308.496094 174.652344 311.015625 187.496094 311.015625 C 200.339844 311.015625 212.808594 308.496094 224.554688 303.527344 C 235.894531 298.734375 246.070312 291.871094 254.804688 283.136719 C 263.542969 274.398438 270.40625 264.21875 275.203125 252.882812 C 280.171875 241.136719 282.6875 228.667969 282.6875 215.824219 C 282.6875 186.53125 263.488281 160.5625 243.160156 133.070312 C 227.6875 112.144531 211.683594 90.503906 202.5 65.847656 L 187.496094 25.574219 L 172.492188 65.847656 C 163.308594 90.503906 147.308594 112.144531 131.832031 133.070312 C 111.503906 160.5625 92.304688 186.53125 92.304688 215.824219 " fill-opacity="1" fill-rule="nonzero"/></g><path fill="#23262f" d="M 187.496094 71.433594 C 204.183594 116.222656 240.738281 150.710938 257.703125 183.71875 L 238.71875 183.71875 C 232.820312 173.929688 225.140625 163.539062 216.945312 152.457031 C 207.207031 139.285156 196.679688 125.046875 187.496094 109.40625 C 178.3125 125.046875 167.785156 139.285156 158.046875 152.457031 C 140.265625 176.503906 124.910156 197.273438 124.910156 215.824219 C 124.910156 232.542969 131.417969 248.257812 143.242188 260.082031 C 155.0625 271.902344 170.777344 278.410156 187.496094 278.410156 C 204.214844 278.410156 219.933594 271.902344 231.753906 260.082031 C 243.574219 248.257812 250.085938 232.542969 250.085938 215.824219 C 250.085938 213.128906 249.757812 210.390625 249.148438 207.601562 L 230.273438 207.601562 L 230.273438 209.375 L 217.542969 209.375 L 217.542969 207.601562 L 203.261719 207.601562 C 202.164062 209.457031 200.148438 210.707031 197.835938 210.707031 L 186.902344 210.707031 C 184.589844 210.707031 182.574219 209.457031 181.476562 207.601562 L 175.785156 207.601562 C 171.617188 207.601562 168.222656 210.992188 168.222656 215.164062 L 168.222656 221.082031 L 168.695312 221.082031 C 170.386719 221.082031 171.757812 222.457031 171.757812 224.144531 C 171.757812 225.839844 170.386719 227.210938 168.695312 227.210938 L 154.910156 227.210938 C 153.21875 227.210938 151.847656 225.839844 151.847656 224.144531 C 151.847656 222.484375 153.171875 221.136719 154.824219 221.089844 L 154.824219 215.164062 C 154.824219 203.585938 164.207031 194.199219 175.785156 194.199219 L 181.445312 194.199219 C 182.539062 192.316406 184.570312 191.046875 186.902344 191.046875 L 188.5625 191.046875 L 188.5625 184.253906 C 183.992188 185.839844 179.703125 187.46875 176.230469 187.46875 C 170.78125 187.46875 168.679688 184.976562 168.679688 181.90625 C 168.679688 178.835938 170.78125 176.347656 176.230469 176.347656 C 179.703125 176.347656 183.992188 177.972656 188.5625 179.558594 L 188.5625 176.902344 C 188.5625 174.800781 190.269531 173.09375 192.371094 173.09375 C 194.472656 173.09375 196.175781 174.800781 196.175781 176.902344 L 196.175781 179.558594 C 200.746094 177.972656 205.035156 176.347656 208.507812 176.347656 C 213.957031 176.347656 216.058594 178.835938 216.058594 181.90625 C 216.058594 184.976562 213.957031 187.46875 208.507812 187.46875 C 205.035156 187.46875 200.746094 185.839844 196.175781 184.253906 L 196.175781 191.046875 L 197.835938 191.046875 C 200.167969 191.046875 202.199219 192.316406 203.292969 194.199219 L 217.542969 194.199219 L 217.542969 192.144531 L 230.273438 192.144531 L 230.273438 194.199219 L 262.398438 194.199219 C 262.765625 195.175781 263.105469 196.148438 263.429688 197.125 L 263.433594 197.125 C 263.457031 197.199219 263.480469 197.273438 263.507812 197.347656 C 263.5625 197.511719 263.613281 197.679688 263.667969 197.84375 C 263.78125 198.195312 263.890625 198.550781 264 198.90625 C 264.046875 199.054688 264.09375 199.203125 264.136719 199.351562 C 264.277344 199.816406 264.410156 200.285156 264.539062 200.75 C 264.578125 200.90625 264.617188 201.0625 264.660156 201.214844 C 264.753906 201.566406 264.847656 201.917969 264.933594 202.265625 C 264.972656 202.429688 265.015625 202.59375 265.054688 202.757812 C 265.167969 203.230469 265.277344 203.699219 265.378906 204.167969 C 265.40625 204.285156 265.429688 204.402344 265.453125 204.515625 C 265.535156 204.902344 265.613281 205.285156 265.683594 205.671875 C 265.714844 205.828125 265.746094 205.988281 265.773438 206.148438 C 265.855469 206.59375 265.933594 207.035156 266 207.480469 C 266.007812 207.519531 266.015625 207.5625 266.023438 207.601562 C 266.449219 210.335938 266.675781 213.074219 266.675781 215.824219 C 266.675781 259.554688 231.226562 295.003906 187.496094 295.003906 C 143.765625 295.003906 108.316406 259.554688 108.316406 215.824219 C 108.316406 172.09375 165.371094 130.820312 187.496094 71.433594 " fill-opacity="1" fill-rule="nonzero"/><g fill="#000000" fill-opacity="1"><g transform="translate(152.977113, 143.577142)"><g><path d="M 5.5625 -6.84375 C 6.59375 -6.84375 7.460938 -6.484375 8.171875 -5.765625 C 8.890625 -5.054688 9.25 -4.191406 9.25 -3.171875 C 9.25 -2.160156 8.890625 -1.296875 8.171875 -0.578125 C 7.460938 0.128906 6.59375 0.484375 5.5625 0.484375 C 4.5625 0.484375 3.703125 0.128906 2.984375 -0.578125 C 2.273438 -1.296875 1.921875 -2.160156 1.921875 -3.171875 C 1.921875 -4.191406 2.273438 -5.054688 2.984375 -5.765625 C 3.703125 -6.484375 4.5625 -6.84375 5.5625 -6.84375 Z M 5.5625 -6.84375 "/></g></g></g></svg>