<svg xmlns="http://www.w3.org/2000/svg" xmlns:xlink="http://www.w3.org/1999/xlink" width="500" zoomAndPan="magnify" viewBox="0 0 375 374.999991" height="500" preserveAspectRatio="xMidYMid meet" version="1.0"><defs><g/><clipPath id="920473eb0d"><path d="M 77 210 L 293 210 L 293 255 L 77 255 Z M 77 210 " clip-rule="nonzero"/></clipPath><clipPath id="f1cefd73e3"><path d="M 79.453125 194.539062 L 295.890625 206.144531 L 293.121094 257.820312 L 76.683594 246.214844 Z M 79.453125 194.539062 " clip-rule="nonzero"/></clipPath><clipPath id="a80866adfe"><path d="M 79.453125 194.539062 L 295.890625 206.144531 L 293.121094 257.820312 L 76.683594 246.214844 Z M 79.453125 194.539062 " clip-rule="nonzero"/></clipPath><clipPath id="ba144a9486"><path d="M 190 206 L 296 206 L 296 240 L 190 240 Z M 190 206 " clip-rule="nonzero"/></clipPath><clipPath id="19a7ac6c70"><path d="M 79.453125 194.539062 L 295.890625 206.144531 L 293.121094 257.820312 L 76.683594 246.214844 Z M 79.453125 194.539062 " clip-rule="nonzero"/></clipPath><clipPath id="92e80ceae2"><path d="M 79.453125 194.539062 L 295.890625 206.144531 L 293.121094 257.820312 L 76.683594 246.214844 Z M 79.453125 194.539062 " clip-rule="nonzero"/></clipPath><clipPath id="670ac816c6"><path d="M 83 224 L 157 224 L 157 248 L 83 248 Z M 83 224 " clip-rule="nonzero"/></clipPath><clipPath id="602665125d"><path d="M 79.453125 194.539062 L 295.890625 206.144531 L 293.121094 257.820312 L 76.683594 246.214844 Z M 79.453125 194.539062 " clip-rule="nonzero"/></clipPath><clipPath id="e08c71ecd9"><path d="M 79.453125 194.539062 L 295.890625 206.144531 L 293.121094 257.820312 L 76.683594 246.214844 Z M 79.453125 194.539062 " clip-rule="nonzero"/></clipPath></defs><g fill="#23262f" fill-opacity="1"><g transform="translate(31.711711, 202.784972)"><g><path d="M 4.4375 0 L 4.4375 -45.65625 L 21.328125 -45.65625 C 24.984375 -45.65625 28.003906 -45.046875 30.390625 -43.828125 C 32.785156 -42.609375 34.566406 -40.929688 35.734375 -38.796875 C 36.910156 -36.671875 37.5 -34.28125 37.5 -31.625 C 37.5 -29.101562 36.929688 -26.785156 35.796875 -24.671875 C 34.671875 -22.566406 32.910156 -20.875 30.515625 -19.59375 C 28.128906 -18.3125 25.066406 -17.671875 21.328125 -17.671875 L 12.78125 -17.671875 L 12.78125 0 Z M 12.78125 -24.453125 L 20.8125 -24.453125 C 23.71875 -24.453125 25.8125 -25.09375 27.09375 -26.375 C 28.375 -27.664062 29.015625 -29.414062 29.015625 -31.625 C 29.015625 -33.882812 28.375 -35.65625 27.09375 -36.9375 C 25.8125 -38.226562 23.71875 -38.875 20.8125 -38.875 L 12.78125 -38.875 Z M 12.78125 -24.453125 "/></g></g></g><g fill="#23262f" fill-opacity="1"><g transform="translate(71.297131, 202.784972)"><g><path d="M 4.4375 0 L 4.4375 -45.65625 L 12.78125 -45.65625 L 12.78125 -6.515625 L 33 -6.515625 L 33 0 Z M 4.4375 0 "/></g></g></g><g fill="#23262f" fill-opacity="1"><g transform="translate(107.230524, 202.784972)"><g><path d="M 22.046875 0.78125 C 18.691406 0.78125 15.664062 0.117188 12.96875 -1.203125 C 10.28125 -2.535156 8.140625 -4.546875 6.546875 -7.234375 C 4.960938 -9.929688 4.171875 -13.347656 4.171875 -17.484375 L 4.171875 -45.65625 L 12.515625 -45.65625 L 12.515625 -17.40625 C 12.515625 -13.84375 13.375 -11.191406 15.09375 -9.453125 C 16.8125 -7.710938 19.191406 -6.84375 22.234375 -6.84375 C 25.234375 -6.84375 27.601562 -7.710938 29.34375 -9.453125 C 31.082031 -11.191406 31.953125 -13.84375 31.953125 -17.40625 L 31.953125 -45.65625 L 40.3125 -45.65625 L 40.3125 -17.484375 C 40.3125 -13.347656 39.484375 -9.929688 37.828125 -7.234375 C 36.171875 -4.546875 33.960938 -2.535156 31.203125 -1.203125 C 28.441406 0.117188 25.390625 0.78125 22.046875 0.78125 Z M 22.046875 0.78125 "/></g></g></g><g fill="#23262f" fill-opacity="1"><g transform="translate(151.641848, 202.784972)"><g><path d="M 4.4375 0 L 4.4375 -45.65625 L 14.34375 -45.65625 L 28.890625 -16.703125 L 43.234375 -45.65625 L 53.15625 -45.65625 L 53.15625 0 L 44.8125 0 L 44.8125 -31.5 L 32.09375 -6.515625 L 25.5 -6.515625 L 12.78125 -31.5 L 12.78125 0 Z M 4.4375 0 "/></g></g></g><g fill="#23262f" fill-opacity="1"><g transform="translate(209.226581, 202.784972)"><g><path d="M 4.4375 0 L 4.4375 -45.65625 L 22.765625 -45.65625 C 27.503906 -45.65625 31.125 -44.554688 33.625 -42.359375 C 36.125 -40.160156 37.375 -37.34375 37.375 -33.90625 C 37.375 -31.039062 36.597656 -28.75 35.046875 -27.03125 C 33.503906 -25.3125 31.625 -24.148438 29.40625 -23.546875 C 32.019531 -23.023438 34.171875 -21.726562 35.859375 -19.65625 C 37.554688 -17.59375 38.40625 -15.191406 38.40625 -12.453125 C 38.40625 -8.847656 37.101562 -5.867188 34.5 -3.515625 C 31.894531 -1.171875 28.195312 0 23.40625 0 Z M 12.78125 -26.484375 L 21.515625 -26.484375 C 23.867188 -26.484375 25.675781 -27.023438 26.9375 -28.109375 C 28.195312 -29.191406 28.828125 -30.734375 28.828125 -32.734375 C 28.828125 -34.648438 28.207031 -36.160156 26.96875 -37.265625 C 25.726562 -38.378906 23.867188 -38.9375 21.390625 -38.9375 L 12.78125 -38.9375 Z M 12.78125 -6.78125 L 22.109375 -6.78125 C 24.585938 -6.78125 26.507812 -7.351562 27.875 -8.5 C 29.25 -9.65625 29.9375 -11.28125 29.9375 -13.375 C 29.9375 -15.5 29.21875 -17.171875 27.78125 -18.390625 C 26.34375 -19.609375 24.410156 -20.21875 21.984375 -20.21875 L 12.78125 -20.21875 Z M 12.78125 -6.78125 "/></g></g></g><g fill="#23262f" fill-opacity="1"><g transform="translate(250.377163, 202.784972)"><g><path d="M 4.4375 0 L 4.4375 -45.65625 L 12.78125 -45.65625 L 12.78125 0 Z M 4.4375 0 "/></g></g></g><g fill="#23262f" fill-opacity="1"><g transform="translate(267.593882, 202.784972)"><g><path d="M 4.4375 0 L 4.4375 -45.65625 L 12.78125 -45.65625 L 34.234375 -13.5 L 34.234375 -45.65625 L 42.59375 -45.65625 L 42.59375 0 L 34.234375 0 L 12.78125 -32.09375 L 12.78125 0 Z M 4.4375 0 "/></g></g></g><g fill="#23262f" fill-opacity="1"><g transform="translate(314.613807, 202.784972)"><g><path d="M 24.390625 0.78125 C 20.085938 0.78125 16.328125 -0.195312 13.109375 -2.15625 C 9.890625 -4.113281 7.390625 -6.84375 5.609375 -10.34375 C 3.828125 -13.84375 2.9375 -17.914062 2.9375 -22.5625 C 2.9375 -27.257812 3.859375 -31.398438 5.703125 -34.984375 C 7.554688 -38.578125 10.1875 -41.382812 13.59375 -43.40625 C 17.007812 -45.425781 21.066406 -46.4375 25.765625 -46.4375 C 31.109375 -46.4375 35.539062 -45.148438 39.0625 -42.578125 C 42.582031 -40.015625 44.863281 -36.472656 45.90625 -31.953125 L 36.59375 -31.953125 C 35.894531 -34.085938 34.628906 -35.75 32.796875 -36.9375 C 30.972656 -38.132812 28.628906 -38.734375 25.765625 -38.734375 C 21.191406 -38.734375 17.664062 -37.285156 15.1875 -34.390625 C 12.71875 -31.503906 11.484375 -27.539062 11.484375 -22.5 C 11.484375 -17.457031 12.707031 -13.554688 15.15625 -10.796875 C 17.613281 -8.035156 20.953125 -6.65625 25.171875 -6.65625 C 29.304688 -6.65625 32.425781 -7.773438 34.53125 -10.015625 C 36.644531 -12.253906 37.914062 -15.195312 38.34375 -18.84375 L 26.8125 -18.84375 L 26.8125 -25.109375 L 46.765625 -25.109375 L 46.765625 0 L 39.0625 0 L 38.40625 -6 C 36.9375 -3.820312 35.09375 -2.144531 32.875 -0.96875 C 30.65625 0.195312 27.828125 0.78125 24.390625 0.78125 Z M 24.390625 0.78125 "/></g></g></g><g clip-path="url(#920473eb0d)"><g clip-path="url(#f1cefd73e3)"><g clip-path="url(#a80866adfe)"><path fill="#23262f" d="M 77.808594 225.617188 C 77.808594 225.617188 77.890625 225.40625 78.050781 224.996094 C 78.132812 224.792969 78.230469 224.539062 78.351562 224.238281 C 78.488281 223.941406 78.648438 223.601562 78.835938 223.210938 C 78.925781 223.011719 79.039062 222.8125 79.15625 222.601562 C 79.273438 222.390625 79.394531 222.167969 79.523438 221.9375 C 79.558594 221.878906 79.589844 221.820312 79.625 221.761719 C 79.660156 221.703125 79.699219 221.644531 79.734375 221.589844 C 79.8125 221.46875 79.890625 221.351562 79.96875 221.226562 C 80.046875 221.105469 80.128906 220.980469 80.210938 220.851562 C 80.292969 220.726562 80.378906 220.59375 80.476562 220.46875 C 81.207031 219.433594 82.167969 218.308594 83.402344 217.191406 C 84.636719 216.074219 86.160156 214.980469 87.964844 214.046875 C 89.765625 213.105469 91.839844 212.3125 94.113281 211.757812 C 94.398438 211.691406 94.683594 211.621094 94.972656 211.550781 C 95.265625 211.488281 95.558594 211.433594 95.851562 211.375 C 96.445312 211.25 97.046875 211.164062 97.660156 211.066406 C 97.96875 211.015625 98.273438 210.984375 98.585938 210.945312 C 98.898438 210.910156 99.210938 210.867188 99.527344 210.839844 C 99.84375 210.8125 100.160156 210.785156 100.480469 210.761719 C 100.640625 210.746094 100.800781 210.734375 100.964844 210.722656 C 101.125 210.710938 101.285156 210.703125 101.449219 210.695312 C 104.042969 210.550781 106.769531 210.605469 109.578125 210.847656 C 115.203125 211.316406 121.164062 212.503906 127.289062 214.183594 C 133.417969 215.863281 139.71875 218.046875 146.089844 220.535156 C 147.683594 221.160156 149.28125 221.789062 150.882812 222.445312 C 152.472656 223.105469 154.074219 223.765625 155.6875 224.433594 C 157.289062 225.105469 158.890625 225.78125 160.484375 226.4375 C 161.28125 226.765625 162.070312 227.089844 162.855469 227.40625 C 163.667969 227.726562 164.484375 228.046875 165.296875 228.367188 C 166.957031 229.027344 168.566406 229.644531 170.199219 230.277344 C 171.011719 230.597656 171.839844 230.898438 172.664062 231.207031 C 173.488281 231.515625 174.308594 231.828125 175.136719 232.140625 C 175.960938 232.4375 176.789062 232.738281 177.617188 233.039062 L 178.859375 233.492188 L 180.105469 233.929688 C 180.9375 234.222656 181.769531 234.511719 182.601562 234.804688 C 183.433594 235.097656 184.269531 235.363281 185.101562 235.644531 L 186.351562 236.0625 L 186.980469 236.273438 L 187.605469 236.472656 C 188.441406 236.738281 189.277344 237.003906 190.113281 237.265625 C 190.53125 237.394531 190.949219 237.535156 191.367188 237.65625 L 192.625 238.03125 C 193.460938 238.28125 194.296875 238.53125 195.132812 238.785156 C 195.972656 239.015625 196.8125 239.246094 197.648438 239.476562 C 198.066406 239.59375 198.484375 239.710938 198.902344 239.824219 C 199.320312 239.949219 199.742188 240.046875 200.160156 240.152344 C 200.996094 240.367188 201.832031 240.582031 202.667969 240.796875 L 203.296875 240.953125 L 203.921875 241.097656 C 204.339844 241.195312 204.757812 241.292969 205.175781 241.386719 C 206.011719 241.578125 206.84375 241.785156 207.675781 241.964844 C 208.511719 242.132812 209.34375 242.304688 210.171875 242.472656 C 210.589844 242.5625 211.003906 242.648438 211.417969 242.734375 C 211.832031 242.8125 212.246094 242.882812 212.660156 242.957031 C 213.488281 243.105469 214.316406 243.253906 215.140625 243.402344 C 215.550781 243.484375 215.964844 243.539062 216.378906 243.601562 C 216.789062 243.664062 217.199219 243.726562 217.613281 243.789062 C 218.019531 243.851562 218.433594 243.914062 218.84375 243.976562 L 219.457031 244.070312 L 219.761719 244.117188 L 220.070312 244.152344 C 220.886719 244.253906 221.703125 244.351562 222.511719 244.449219 C 222.917969 244.5 223.324219 244.550781 223.730469 244.601562 C 224.136719 244.648438 224.539062 244.675781 224.941406 244.710938 C 225.75 244.785156 226.554688 244.855469 227.355469 244.929688 C 227.554688 244.949219 227.757812 244.96875 227.957031 244.984375 L 228.03125 244.996094 C 228.066406 244.996094 227.992188 244.996094 228.0625 245 L 228.214844 245.007812 L 228.53125 245.027344 C 228.945312 245.054688 229.359375 245.082031 229.769531 245.109375 C 230.195312 245.136719 230.570312 245.152344 230.957031 245.171875 C 231.34375 245.1875 231.730469 245.207031 232.113281 245.226562 C 232.894531 245.253906 233.679688 245.277344 234.457031 245.296875 C 235.234375 245.300781 236.007812 245.320312 236.78125 245.3125 C 237.164062 245.3125 237.550781 245.308594 237.933594 245.304688 C 238.125 245.304688 238.316406 245.304688 238.503906 245.300781 C 238.699219 245.296875 238.886719 245.292969 239.078125 245.289062 C 239.839844 245.265625 240.597656 245.257812 241.351562 245.214844 C 241.726562 245.199219 242.101562 245.179688 242.476562 245.164062 C 242.847656 245.152344 243.21875 245.121094 243.589844 245.097656 C 249.527344 244.734375 255.121094 243.902344 260.210938 242.75 C 262.757812 242.171875 265.179688 241.523438 267.460938 240.8125 C 269.742188 240.097656 271.878906 239.328125 273.871094 238.542969 C 275.867188 237.757812 277.691406 236.921875 279.378906 236.128906 C 281.050781 235.304688 282.585938 234.519531 283.9375 233.75 C 284.277344 233.558594 284.605469 233.371094 284.929688 233.191406 C 285.246094 233.003906 285.550781 232.816406 285.847656 232.636719 C 286.148438 232.457031 286.4375 232.285156 286.71875 232.117188 C 287 231.949219 287.261719 231.773438 287.519531 231.613281 C 287.777344 231.449219 288.023438 231.292969 288.261719 231.140625 C 288.378906 231.0625 288.496094 230.988281 288.609375 230.917969 C 288.722656 230.84375 288.832031 230.769531 288.941406 230.695312 C 289.371094 230.40625 289.761719 230.144531 290.113281 229.910156 C 290.46875 229.679688 290.765625 229.457031 291.03125 229.269531 C 291.292969 229.085938 291.515625 228.925781 291.695312 228.800781 C 292.054688 228.550781 292.242188 228.417969 292.242188 228.417969 C 292.242188 228.417969 292.09375 228.589844 291.808594 228.925781 C 291.664062 229.089844 291.488281 229.296875 291.277344 229.542969 C 291.0625 229.789062 290.820312 230.078125 290.527344 230.386719 C 290.234375 230.699219 289.910156 231.046875 289.550781 231.429688 C 289.375 231.625 289.179688 231.816406 288.976562 232.015625 C 288.769531 232.21875 288.558594 232.429688 288.339844 232.648438 C 288.117188 232.863281 287.894531 233.097656 287.648438 233.324219 C 287.40625 233.550781 287.152344 233.785156 286.890625 234.027344 C 286.625 234.265625 286.355469 234.519531 286.074219 234.769531 C 285.785156 235.015625 285.492188 235.269531 285.1875 235.535156 C 283.976562 236.589844 282.570312 237.683594 281.003906 238.835938 C 280.609375 239.117188 280.203125 239.402344 279.789062 239.691406 C 279.582031 239.835938 279.371094 239.984375 279.160156 240.132812 C 278.941406 240.273438 278.726562 240.414062 278.503906 240.558594 C 278.066406 240.84375 277.617188 241.148438 277.15625 241.433594 C 276.691406 241.71875 276.21875 242.007812 275.738281 242.300781 C 273.796875 243.457031 271.679688 244.601562 269.386719 245.699219 C 267.089844 246.792969 264.621094 247.828125 261.992188 248.78125 C 256.738281 250.6875 250.839844 252.238281 244.484375 253.222656 C 243.6875 253.351562 242.886719 253.460938 242.078125 253.5625 C 241.269531 253.679688 240.457031 253.757812 239.636719 253.851562 C 239.429688 253.875 239.222656 253.898438 239.019531 253.917969 C 238.8125 253.9375 238.605469 253.957031 238.398438 253.976562 C 237.984375 254.011719 237.570312 254.050781 237.152344 254.085938 C 236.320312 254.15625 235.480469 254.199219 234.636719 254.257812 C 233.792969 254.300781 232.945312 254.339844 232.085938 254.371094 C 231.652344 254.382812 231.214844 254.390625 230.777344 254.398438 C 230.339844 254.40625 229.886719 254.417969 229.484375 254.417969 C 229.070312 254.417969 228.65625 254.421875 228.238281 254.421875 L 227.769531 254.421875 C 227.785156 254.421875 227.660156 254.417969 227.644531 254.417969 L 227.5625 254.417969 C 227.34375 254.410156 227.128906 254.40625 226.910156 254.398438 C 226.042969 254.375 225.171875 254.347656 224.296875 254.320312 C 217.289062 254.078125 210.101562 253.140625 202.941406 251.691406 C 199.355469 250.980469 195.789062 250.09375 192.230469 249.148438 C 188.6875 248.160156 185.152344 247.097656 181.667969 245.925781 C 178.175781 244.765625 174.738281 243.5 171.332031 242.199219 C 169.636719 241.535156 167.949219 240.875 166.269531 240.179688 C 164.59375 239.488281 162.894531 238.800781 161.285156 238.09375 C 160.464844 237.742188 159.644531 237.386719 158.828125 237.035156 C 157.988281 236.667969 157.160156 236.300781 156.351562 235.925781 C 154.726562 235.179688 153.140625 234.433594 151.570312 233.699219 C 148.433594 232.214844 145.363281 230.769531 142.339844 229.375 C 136.296875 226.589844 130.429688 224.046875 124.789062 221.929688 C 119.152344 219.8125 113.742188 218.113281 108.679688 217.042969 C 107.414062 216.765625 106.171875 216.550781 104.957031 216.351562 C 104.351562 216.269531 103.746094 216.167969 103.152344 216.105469 C 102.855469 216.070312 102.558594 216.035156 102.265625 216.003906 C 101.972656 215.976562 101.679688 215.949219 101.390625 215.921875 C 99.066406 215.710938 96.867188 215.707031 94.816406 215.875 C 94.6875 215.882812 94.558594 215.890625 94.433594 215.902344 C 94.304688 215.917969 94.179688 215.933594 94.054688 215.945312 C 93.804688 215.976562 93.554688 216.007812 93.308594 216.035156 C 93.0625 216.066406 92.820312 216.113281 92.578125 216.148438 C 92.339844 216.1875 92.097656 216.21875 91.863281 216.269531 C 91.628906 216.316406 91.398438 216.367188 91.167969 216.414062 C 91.050781 216.4375 90.9375 216.464844 90.824219 216.488281 C 90.710938 216.515625 90.597656 216.546875 90.488281 216.574219 C 90.265625 216.632812 90.042969 216.691406 89.824219 216.746094 L 89.660156 216.789062 L 89.5 216.839844 C 89.390625 216.875 89.285156 216.90625 89.179688 216.941406 C 87.484375 217.472656 85.984375 218.160156 84.699219 218.929688 C 84.539062 219.023438 84.378906 219.117188 84.222656 219.210938 C 84.070312 219.316406 83.921875 219.417969 83.777344 219.515625 C 83.628906 219.617188 83.484375 219.714844 83.339844 219.8125 C 83.195312 219.90625 83.066406 220.019531 82.933594 220.121094 C 82.796875 220.226562 82.667969 220.328125 82.535156 220.425781 C 82.40625 220.527344 82.273438 220.621094 82.15625 220.730469 C 81.917969 220.9375 81.6875 221.140625 81.460938 221.335938 C 81.347656 221.433594 81.246094 221.535156 81.144531 221.636719 C 81.042969 221.738281 80.941406 221.835938 80.84375 221.933594 C 80.746094 222.03125 80.648438 222.125 80.554688 222.222656 C 80.460938 222.3125 80.367188 222.40625 80.285156 222.503906 C 80.113281 222.691406 79.949219 222.875 79.796875 223.046875 C 79.640625 223.222656 79.488281 223.382812 79.363281 223.546875 C 79.101562 223.875 78.871094 224.164062 78.671875 224.414062 C 78.480469 224.671875 78.324219 224.898438 78.199219 225.078125 C 77.941406 225.433594 77.808594 225.617188 77.808594 225.617188 " fill-opacity="1" fill-rule="nonzero"/></g></g></g><g clip-path="url(#ba144a9486)"><g clip-path="url(#19a7ac6c70)"><g clip-path="url(#92e80ceae2)"><path fill="#23262f" d="M 190.953125 227.230469 C 190.953125 227.230469 191.402344 227.339844 192.238281 227.542969 C 193.078125 227.746094 194.296875 228.089844 195.851562 228.457031 C 196.238281 228.554688 196.648438 228.648438 197.074219 228.757812 C 197.5 228.863281 197.941406 228.988281 198.410156 229.089844 C 199.351562 229.296875 200.355469 229.542969 201.433594 229.796875 C 202.511719 230.027344 203.660156 230.277344 204.867188 230.539062 C 206.078125 230.78125 207.351562 231.035156 208.679688 231.296875 C 209.34375 231.414062 210.023438 231.53125 210.714844 231.652344 C 211.058594 231.714844 211.40625 231.777344 211.757812 231.839844 C 211.933594 231.871094 212.109375 231.902344 212.289062 231.933594 C 212.464844 231.960938 212.644531 231.984375 212.824219 232.011719 C 214.261719 232.214844 215.734375 232.476562 217.265625 232.648438 C 217.644531 232.695312 218.027344 232.746094 218.414062 232.792969 C 218.796875 232.839844 219.183594 232.902344 219.578125 232.941406 C 220.359375 233.015625 221.152344 233.09375 221.949219 233.179688 C 222.351562 233.214844 222.75 233.269531 223.15625 233.296875 C 223.558594 233.324219 223.964844 233.355469 224.375 233.382812 C 224.78125 233.414062 225.191406 233.441406 225.605469 233.472656 C 226.015625 233.496094 226.425781 233.542969 226.84375 233.554688 C 227.671875 233.589844 228.511719 233.625 229.355469 233.664062 C 229.5625 233.671875 229.777344 233.683594 229.984375 233.691406 C 230.195312 233.695312 230.410156 233.699219 230.621094 233.699219 C 231.042969 233.703125 231.46875 233.707031 231.894531 233.710938 C 232.75 233.726562 233.605469 233.75 234.464844 233.714844 C 235.328125 233.699219 236.191406 233.683594 237.058594 233.667969 C 240.523438 233.515625 244.023438 233.207031 247.5 232.71875 L 248.8125 232.511719 C 249.273438 232.445312 249.679688 232.363281 250.105469 232.289062 C 250.9375 232.144531 251.796875 231.960938 252.652344 231.792969 C 254.351562 231.417969 256.042969 231.015625 257.699219 230.550781 C 258.117188 230.4375 258.527344 230.3125 258.941406 230.195312 L 259.554688 230.015625 L 260.167969 229.820312 C 260.574219 229.691406 260.984375 229.570312 261.386719 229.433594 C 261.789062 229.296875 262.1875 229.160156 262.589844 229.027344 C 262.992188 228.894531 263.386719 228.742188 263.78125 228.601562 C 264.175781 228.460938 264.570312 228.320312 264.957031 228.164062 C 265.347656 228.015625 265.734375 227.867188 266.121094 227.714844 C 266.503906 227.558594 266.886719 227.402344 267.265625 227.246094 C 267.457031 227.167969 267.648438 227.089844 267.835938 227.011719 C 268.023438 226.929688 268.210938 226.847656 268.398438 226.765625 C 268.769531 226.601562 269.144531 226.441406 269.511719 226.277344 C 270.242188 225.929688 270.976562 225.605469 271.6875 225.25 C 273.117188 224.5625 274.480469 223.824219 275.808594 223.089844 C 278.4375 221.589844 280.859375 220.03125 283.007812 218.464844 C 283.546875 218.070312 284.066406 217.679688 284.578125 217.292969 C 285.078125 216.894531 285.566406 216.507812 286.042969 216.128906 C 286.511719 215.738281 286.976562 215.363281 287.414062 214.988281 C 287.851562 214.605469 288.273438 214.234375 288.683594 213.875 C 290.316406 212.417969 291.660156 211.050781 292.757812 209.902344 C 293.300781 209.324219 293.792969 208.808594 294.199219 208.339844 C 294.609375 207.878906 294.96875 207.488281 295.242188 207.15625 C 295.804688 206.503906 296.101562 206.15625 296.101562 206.15625 C 296.101562 206.15625 296.054688 206.257812 295.960938 206.460938 C 295.871094 206.664062 295.734375 206.964844 295.546875 207.355469 C 295.453125 207.550781 295.355469 207.773438 295.230469 208.007812 C 295.109375 208.246094 294.972656 208.5 294.828125 208.78125 C 294.679688 209.054688 294.53125 209.363281 294.347656 209.671875 C 294.167969 209.984375 293.976562 210.316406 293.773438 210.667969 C 292.941406 212.058594 291.867188 213.726562 290.476562 215.527344 C 290.128906 215.980469 289.753906 216.433594 289.375 216.90625 C 288.988281 217.375 288.578125 217.839844 288.160156 218.328125 C 287.738281 218.8125 287.285156 219.285156 286.828125 219.78125 C 286.359375 220.261719 285.871094 220.753906 285.375 221.253906 C 283.347656 223.214844 281.007812 225.207031 278.367188 227.09375 C 277.039062 228.027344 275.652344 228.960938 274.183594 229.828125 C 272.722656 230.714844 271.1875 231.546875 269.601562 232.339844 C 269.199219 232.535156 268.800781 232.730469 268.398438 232.929688 C 267.992188 233.117188 267.582031 233.304688 267.171875 233.492188 C 266.765625 233.679688 266.347656 233.855469 265.929688 234.035156 C 265.511719 234.210938 265.09375 234.398438 264.667969 234.5625 C 262.972656 235.25 261.226562 235.863281 259.445312 236.429688 C 257.664062 236.984375 255.84375 237.480469 254.003906 237.90625 C 253.078125 238.105469 252.164062 238.316406 251.203125 238.484375 C 250.730469 238.574219 250.242188 238.667969 249.804688 238.734375 L 248.414062 238.957031 C 244.667969 239.480469 240.890625 239.75 237.175781 239.789062 C 235.324219 239.75 233.484375 239.753906 231.675781 239.609375 C 231.222656 239.578125 230.773438 239.550781 230.320312 239.519531 C 230.097656 239.503906 229.871094 239.488281 229.648438 239.472656 C 229.425781 239.449219 229.203125 239.425781 228.980469 239.40625 C 228.09375 239.308594 227.214844 239.214844 226.335938 239.117188 C 225.902344 239.078125 225.46875 239.003906 225.039062 238.941406 C 224.609375 238.875 224.179688 238.8125 223.753906 238.75 C 223.328125 238.683594 222.902344 238.621094 222.480469 238.554688 C 222.058594 238.492188 221.644531 238.402344 221.230469 238.328125 C 220.402344 238.167969 219.582031 238.011719 218.777344 237.851562 C 217.972656 237.679688 217.183594 237.488281 216.402344 237.304688 C 216.015625 237.214844 215.628906 237.121094 215.242188 237.03125 L 214.957031 236.964844 L 214.671875 236.886719 C 214.480469 236.832031 214.292969 236.78125 214.105469 236.730469 C 213.355469 236.523438 212.621094 236.324219 211.898438 236.117188 C 211.71875 236.066406 211.535156 236.015625 211.359375 235.964844 C 211.179688 235.90625 211.003906 235.851562 210.824219 235.796875 C 210.472656 235.6875 210.128906 235.574219 209.78125 235.464844 C 209.089844 235.246094 208.410156 235.039062 207.753906 234.816406 C 207.097656 234.582031 206.457031 234.351562 205.832031 234.125 C 205.207031 233.898438 204.589844 233.691406 204.007812 233.453125 C 203.417969 233.214844 202.847656 232.988281 202.292969 232.761719 C 201.738281 232.539062 201.199219 232.328125 200.683594 232.101562 C 199.652344 231.640625 198.691406 231.21875 197.808594 230.8125 C 196.925781 230.398438 196.125 229.996094 195.402344 229.636719 C 195.042969 229.457031 194.703125 229.285156 194.382812 229.121094 C 194.058594 228.964844 193.769531 228.792969 193.496094 228.648438 C 192.945312 228.351562 192.480469 228.089844 192.105469 227.882812 C 191.355469 227.457031 190.953125 227.230469 190.953125 227.230469 " fill-opacity="1" fill-rule="nonzero"/></g></g></g><g clip-path="url(#670ac816c6)"><g clip-path="url(#602665125d)"><g clip-path="url(#e08c71ecd9)"><path fill="#284faf" d="M 83.351562 227.617188 C 83.351562 227.617188 83.425781 227.589844 83.566406 227.535156 C 83.707031 227.484375 83.917969 227.402344 84.191406 227.304688 C 84.464844 227.203125 84.804688 227.082031 85.199219 226.941406 C 85.398438 226.875 85.613281 226.800781 85.84375 226.71875 C 86.074219 226.648438 86.320312 226.574219 86.582031 226.496094 C 87.105469 226.335938 87.6875 226.167969 88.324219 225.984375 C 88.960938 225.816406 89.65625 225.65625 90.398438 225.476562 C 90.582031 225.433594 90.769531 225.378906 90.960938 225.34375 C 91.15625 225.304688 91.351562 225.265625 91.550781 225.226562 C 91.949219 225.152344 92.359375 225.070312 92.777344 224.988281 C 92.988281 224.949219 93.203125 224.902344 93.417969 224.867188 C 93.636719 224.832031 93.855469 224.800781 94.078125 224.765625 C 94.523438 224.699219 94.980469 224.628906 95.445312 224.558594 C 95.910156 224.480469 96.390625 224.441406 96.878906 224.382812 C 97.367188 224.332031 97.863281 224.28125 98.371094 224.230469 C 98.875 224.1875 99.394531 224.160156 99.917969 224.125 C 100.183594 224.105469 100.445312 224.089844 100.714844 224.074219 C 100.980469 224.054688 101.25 224.058594 101.519531 224.046875 C 102.0625 224.035156 102.613281 224.023438 103.167969 224.007812 C 103.726562 223.996094 104.289062 224.015625 104.859375 224.023438 C 105.144531 224.03125 105.429688 224.035156 105.71875 224.039062 C 106.007812 224.042969 106.296875 224.066406 106.585938 224.082031 C 107.167969 224.113281 107.757812 224.148438 108.347656 224.179688 C 110.710938 224.371094 113.152344 224.675781 115.601562 225.132812 C 118.050781 225.605469 120.515625 226.203125 122.941406 226.929688 C 125.359375 227.675781 127.738281 228.535156 130.035156 229.488281 C 132.324219 230.453125 134.523438 231.515625 136.605469 232.621094 C 137.121094 232.902344 137.632812 233.191406 138.136719 233.472656 C 138.386719 233.613281 138.640625 233.753906 138.886719 233.894531 C 139.132812 234.042969 139.378906 234.1875 139.621094 234.335938 C 140.105469 234.625 140.585938 234.914062 141.058594 235.203125 C 141.523438 235.503906 141.980469 235.796875 142.433594 236.089844 C 142.660156 236.234375 142.882812 236.378906 143.105469 236.527344 C 143.324219 236.675781 143.542969 236.824219 143.757812 236.972656 C 144.1875 237.269531 144.609375 237.5625 145.023438 237.851562 C 145.4375 238.144531 145.835938 238.4375 146.226562 238.730469 C 146.617188 239.023438 147.007812 239.296875 147.375 239.589844 C 147.742188 239.878906 148.101562 240.164062 148.453125 240.441406 C 148.804688 240.71875 149.152344 240.980469 149.472656 241.261719 C 149.800781 241.535156 150.117188 241.804688 150.425781 242.0625 C 150.734375 242.324219 151.039062 242.570312 151.316406 242.828125 C 151.882812 243.335938 152.414062 243.804688 152.894531 244.253906 C 153.371094 244.703125 153.808594 245.121094 154.195312 245.503906 C 154.390625 245.691406 154.574219 245.871094 154.746094 246.042969 C 154.917969 246.210938 155.074219 246.378906 155.222656 246.53125 C 155.515625 246.832031 155.765625 247.09375 155.964844 247.308594 C 156.164062 247.519531 156.3125 247.6875 156.417969 247.796875 C 156.519531 247.910156 156.570312 247.964844 156.570312 247.964844 C 156.570312 247.964844 156.5 247.929688 156.367188 247.859375 C 156.234375 247.789062 156.035156 247.683594 155.777344 247.546875 C 155.261719 247.273438 154.527344 246.851562 153.574219 246.335938 C 153.097656 246.082031 152.582031 245.785156 152.011719 245.472656 C 151.4375 245.167969 150.828125 244.824219 150.171875 244.46875 C 149.515625 244.113281 148.816406 243.738281 148.078125 243.339844 C 147.34375 242.949219 146.566406 242.542969 145.757812 242.117188 C 144.949219 241.699219 144.101562 241.269531 143.230469 240.820312 C 142.789062 240.601562 142.34375 240.382812 141.890625 240.15625 C 141.664062 240.042969 141.4375 239.929688 141.207031 239.8125 C 140.976562 239.703125 140.742188 239.59375 140.511719 239.480469 C 140.042969 239.257812 139.570312 239.027344 139.089844 238.796875 C 138.605469 238.574219 138.117188 238.347656 137.625 238.117188 C 137.378906 238.003906 137.132812 237.890625 136.882812 237.773438 C 136.632812 237.660156 136.378906 237.550781 136.125 237.4375 C 135.621094 237.210938 135.109375 236.984375 134.597656 236.757812 C 132.527344 235.867188 130.378906 234.996094 128.179688 234.164062 C 125.972656 233.351562 123.714844 232.582031 121.4375 231.878906 C 119.160156 231.195312 116.859375 230.585938 114.578125 230.050781 C 112.296875 229.53125 110.027344 229.101562 107.820312 228.734375 C 106.714844 228.582031 105.628906 228.394531 104.558594 228.277344 C 104.289062 228.246094 104.023438 228.210938 103.757812 228.179688 C 103.492188 228.148438 103.230469 228.105469 102.96875 228.085938 C 102.441406 228.03125 101.921875 227.980469 101.410156 227.929688 C 100.898438 227.871094 100.390625 227.839844 99.890625 227.800781 C 99.390625 227.761719 98.894531 227.722656 98.410156 227.683594 C 97.925781 227.660156 97.449219 227.632812 96.976562 227.609375 C 96.507812 227.585938 96.046875 227.550781 95.59375 227.542969 C 93.78125 227.472656 92.109375 227.453125 90.625 227.453125 C 89.882812 227.457031 89.183594 227.472656 88.535156 227.464844 C 87.894531 227.484375 87.300781 227.503906 86.761719 227.515625 C 86.492188 227.519531 86.238281 227.523438 85.996094 227.53125 C 85.757812 227.539062 85.53125 227.550781 85.320312 227.558594 C 84.898438 227.578125 84.539062 227.589844 84.246094 227.597656 C 83.957031 227.609375 83.730469 227.609375 83.582031 227.613281 C 83.429688 227.617188 83.351562 227.617188 83.351562 227.617188 " fill-opacity="1" fill-rule="nonzero"/></g></g></g></svg>